<?xml version="1.0" encoding="utf-8"?>
<!-- Generator: Adobe Illustrator 19.0.0, SVG Export Plug-In . SVG Version: 6.00 Build 0)  -->
<svg version="1.1" id="Layer_1" xmlns="http://www.w3.org/2000/svg" xmlns:xlink="http://www.w3.org/1999/xlink" x="0px" y="0px"
	 viewBox="0 0 450 450" enable-background="new 0 0 450 450" xml:space="preserve">
<path id="XMLID_1_" fill="#3483C5" stroke="#000000" stroke-miterlimit="10" d="M381.2,200.5c-0.6,0.7-1.3,1.4-2,2.1
	c-12.2,12.5-29.3,21.9-45.1,29c-10.3,4.6-22.1,5.8-32.2,10.4c-8.9,4-12.4,13.1-14.6,22c-3.8,15.5-5.3,31.5-4.5,47.4
	c0.2,3.1,0.4,6.4,1.7,9.3c2.6,5.9,8.7,9.3,14.1,12.8c5.6,3.6,10.8,7.8,15.6,12.4c3,2.9,12.6,10.8,12.9,15.1
	c0.5,6.8-22.5,16.7-28.6,19.6c-22.9,11-48.2,16.7-73.6,16.7c-96.6,0-175-80.9-175-180.6c0-37,11.1-73.6,32-104.2
	c5.1-7.4,10.7-14.4,16.8-21c4.7-5.1,12.2-15,18.8-17.3c14.8-5.3,39.4,7,48.4,18.2c4,5,6.8,10.9,9,16.9c9.8,26.1,10.6,54.6,9.7,82.5
	c-0.2,5.6-0.4,11.4,1.8,16.5c2.5,6,7.9,10.3,13.7,13.1c17.6,8.6,40.5,4.2,53.7-10.1c11.7-12.7,15.2-30.6,17.1-47.8
	c1.9-17.6,2.1-36.8-8.3-51.2c-4.7-6.6-11.4-11.6-15.8-18.4c-3.8-5.7-5.8-12.4-7.1-19.1c-1.5-7.4-6.7-28.5-1.9-35.1
	c4-5.6,16.5-1.2,22.4,0c17.1,3.6,33.6,9.9,48.8,18.5c23,13,42.9,31.4,58.1,53.1C384.7,136.4,404.5,173.7,381.2,200.5z"/>
<ellipse id="XMLID_2_" fill="#ED1F24" stroke="#000000" stroke-miterlimit="10" cx="390.9" cy="39.8" rx="32.8" ry="25.6"/>
<path id="XMLID_3_" fill="none" stroke="#000000" stroke-miterlimit="10" d="M393.1,14.8c0.9,4.7-1.3,10,0.9,14.2
	c0.9,1.8,2.6,3.1,4.2,4.2c6.5,4.5,14.2,7.1,22.1,7.4c1.1,0,2.6-0.5,2.2-1.5"/>
</svg>
