<?xml version="1.0" encoding="utf-8"?>
<!-- Generator: Adobe Illustrator 19.0.0, SVG Export Plug-In . SVG Version: 6.00 Build 0)  -->
<svg version="1.1" id="Layer_1" xmlns="http://www.w3.org/2000/svg" xmlns:xlink="http://www.w3.org/1999/xlink" x="0px" y="0px"
	 viewBox="0 0 300 300" enable-background="new 0 0 300 300" xml:space="preserve">
<path id="XMLID_1_" fill="#73C69B" stroke="#000000" stroke-miterlimit="10" d="M49.6,79.5c23.5-28.1,58.3-46,95.3-48.7
	c18.5-1.4,43-0.8,56.8,13.8c11,11.7,11,29.1,8.8,44c-2.1,14.9-6.1,29.3-10.9,43.6c-10.6,31.8-24.6,62.8-28.9,96
	c-2.1,16.5-1.9,33.1-3.7,49.6c-0.4,3.8-0.1,12-3.2,15c-2.7,2.6-8.4,1.6-11.7,1.6c-23.6-0.5-47-7-67.3-19
	c-39.7-23.4-65.4-66.6-65.4-112.9c0-2.9-1-8.9,1.6-10.7c2.2-1.6,11.2-0.1,14-0.1c10,0,19.9,0,29.9,0c19.9,0,39.9,0,59.8,0
	c7.8,0,15.7,0,23.1,2.5c7.2,2.4,13.5,7,18.8,12.4c11.9,12.1,19.4,28.5,20.6,45.4"/>
<path id="XMLID_2_" fill="none" stroke="#000000" stroke-miterlimit="10" d="M29,124c33.6-0.9,68.1-1.8,99.8,9.2
	c6,2,11.8,4.5,17.1,7.9c8.5,5.3,15.4,12.8,22,20.4c4.8,5.5,9.5,11.2,12.5,17.8s4.4,14.3,2.1,21.3"/>
<path id="XMLID_3_" fill="none" stroke="#000000" stroke-miterlimit="10" d="M40.7,92.6c28.3-1.3,57.5-2.4,84,7.6
	c5,1.9,9.9,4.2,13.8,7.7c3.7,3.4,6.4,7.7,9,11.9c9.1,14.9,18.3,29.9,24.1,46.3c7.2,20.6,8.9,42.6,10.6,64.3"/>
</svg>
