<?xml version="1.0" encoding="utf-8"?>
<!-- Generator: Adobe Illustrator 19.0.0, SVG Export Plug-In . SVG Version: 6.00 Build 0)  -->
<svg version="1.1" id="Layer_1" xmlns="http://www.w3.org/2000/svg" xmlns:xlink="http://www.w3.org/1999/xlink" x="0px" y="0px"
	 viewBox="0 0 300 300" enable-background="new 0 0 300 300" xml:space="preserve">
<path id="XMLID_2_" fill="none" stroke="#000000" stroke-miterlimit="10" d="M29.8,69.8c0-0.2,0.1-0.3,0.2-0.3"/>
<path id="XMLID_3_" fill="none" d="M51.8,44.1c0,124.1,79.6,224.5,178.1,224.5"/>
<path id="XMLID_4_" fill="none" d="M-29.5,54.5c0,124.1,79.6,224.5,178.1,224.5"/>
<path id="XMLID_5_" fill="none" d="M-34.9,103c0-0.2,0-0.4,0-0.4"/>
<path id="XMLID_6_" fill="#F2759C" d="M62.6,44.1c0,106.7,88.9,193,198.8,193"/>
<path id="XMLID_7_" fill="none" d="M-24.9,129.2c0,0-0.2,0-0.4,0"/>
<path id="XMLID_8_" fill="none" d="M173.4,49.1c0-5.4,31.2-9.8,69.8-9.8"/>
<ellipse id="XMLID_1_" fill="#51C5CF" stroke="#000000" stroke-miterlimit="10" cx="153.9" cy="150.1" rx="139.8" ry="146.3"/>
<path id="XMLID_9_" fill="#A54E9E" stroke="#000000" stroke-miterlimit="10" d="M88.4,49.1c0,103.9,63.3,188,141.5,188"/>
<path id="XMLID_10_" fill="none" stroke="#FFFFFF" stroke-miterlimit="10" d="M-13.7,201.4c0-0.7-0.6-1.2-1.2-1.2"/>
</svg>
