<?xml version="1.0" encoding="utf-8"?>
<!-- Generator: Adobe Illustrator 19.0.0, SVG Export Plug-In . SVG Version: 6.00 Build 0)  -->
<svg version="1.1" id="Layer_1" xmlns="http://www.w3.org/2000/svg" xmlns:xlink="http://www.w3.org/1999/xlink" x="0px" y="0px"
	 viewBox="0 0 300 300" enable-background="new 0 0 300 300" xml:space="preserve">
<path id="XMLID_1_" fill="#485CA9" stroke="#30B44A" stroke-miterlimit="10" d="M180.3,264.6c-14.6-17.1-29.3-34.3-39.8-54.2
	c-4.2-8-7.7-16.4-9.5-25.2c-1.7-8.3-1.8-16.8-1.8-25.2c-0.1-11.9-0.1-23.9,1.4-35.7c3.1-25.4,12.9-49.5,24.8-72.1
	c2.9-5.4,5.6-12.3,9.5-17c3.3-3.9,7.5-2.2,12.6-1.4c9.5,1.6,18.9,4.4,27.8,8.3c43.2,18.8,72.2,62.3,72.2,109.5
	c0,66-54,119.5-120.5,119.5S36.5,217.6,36.5,151.6S90.5,32.1,157,32.1c3.2,0,6.3,0.1,9.4,0.4"/>
</svg>
